# AST/ASF file generated using VICON BodyLanguage
# -----------------------------------------------
:version 1.10
:name VICON
:units
  mass 1.0
  length 0.45
  angle deg
:documentation
   .ast/.asf automatically generated from VICON data using
   VICON BodyBuilder and BodyLanguage model FoxedUp or BRILLIANT.MOD
:root
   order TX TY TZ RX RY RZ
   axis XYZ
   position 0 0 0  
   orientation 0 0 0 
:bonedata
  begin
     id 1 
     name lhipjoint
     direction 0.716248 -0.617586 0.324924 
     length 2.63557 
     axis 0 0 0  XYZ
  end
  begin
     id 2 
     name lfemur
     direction 0.34202 -0.939693 0  
     length 7.01235  
     axis 0 0 20  XYZ
    dof rx ry rz
    limits (-160.0 20.0)
           (-70.0 70.0)
           (-60.0 70.0)
  end
  begin
     id 3 
     name ltibia
     direction 0.34202 -0.939693 0   
     length 8.14348   
     axis 0 0 20   XYZ
    dof rx
    limits (-10.0 170.0)
  end
  begin
     id 4 
     name lfoot
     direction 0.0982064 -0.26982 0.95789   
     length 1.99077   
     axis -90 7.62852e-016 20   XYZ
    dof rx rz
    limits (-45.0 90.0)
           (-70.0 20.0)
  end
  begin
     id 5 
     name ltoes
     direction 1.53511e-011 -4.21891e-011 1   
     length 0.99735   
     axis -90 7.62852e-016 20   XYZ
    dof rx
    limits (-90.0 20.0)
  end
  begin
     id 6 
     name rhipjoint
     direction -0.687828 -0.642391 0.337975   
     length 2.5338  
     axis 0 0 0  XYZ 
  end
  begin
     id 7 
     name rfemur
     direction -0.34202 -0.939693 0   
     length 6.90199   
     axis 0 0 -20   XYZ
    dof rx ry rz
    limits (-160.0 20.0)
           (-70.0 70.0)
           (-70.0 60.0)
  end
  begin
     id 8 
     name rtibia
     direction -0.34202 -0.939693 0   
     length 8.07725   
     axis 0 0 -20   XYZ
    dof rx
    limits (-10.0 170.0)
 end
 begin
     id 9 
     name rfoot
     direction -0.0912384 -0.250675 0.963762   
     length 2.11621  
     axis -90 -7.62852e-016 -20   XYZ
    dof rx rz
    limits (-45.0 90.0)
           (-20.0 70.0)
  end
  begin
     id 10 
     name rtoes
     direction -1.5359e-011 -4.21894e-011 1   
     length 1.06031   
     axis -90 -7.62852e-016 -20   XYZ
    dof rx
    limits (-90.0 20.0)
  end
  begin
     id 11 
     name lowerback
     direction -0.0403572 0.987953 -0.149396   
     length 2.05637   
     axis 0 0 0   XYZ
    dof rx ry rz
    limits (-20.0 45.0)
           (-30.0 30.0)
           (-30.0 30.0)
  end
  begin
     id 12 
     name upperback
     direction -0.00512151 0.997598 0.0690792   
     length 2.01086   
     axis 0 0 0   XYZ
    dof rx ry rz
    limits (-20.0 45.0)
           (-30.0 30.0)
           (-30.0 30.0)
  end
  begin
     id 13 
     name thorax
     direction 0.0136133 0.989392 0.14463   
     length 2.09035   
     axis 0 0 0   XYZ
    dof rx ry rz
    limits (-20.0 45.0)
           (-30.0 30.0)
           (-30.0 30.0)
  end
  begin
     id 14 
     name lowerneck
     direction 0.0250714 0.992811 0.11704   
     length 1.70806   
     axis 0 0 0   XYZ
    dof rx ry rz
    limits (-20.0 45.0)
           (-30.0 30.0)
           (-30.0 30.0)
  end
  begin
     id 15 
     name upperneck
     direction -0.0519205 0.998394 -0.0226787   
     length 1.6689   
     axis 0 0 0   XYZ
    dof rx ry rz
    limits (-20.0 45.0)
           (-30.0 30.0)
           (-30.0 30.0)
  end
  begin
     id 16
     name head
     direction -0.0201693 0.999547 -0.0223192  
     length 1.83412  
     axis 0 0 0   XYZ
    dof rx ry rz
    limits (-20.0 45.0)
           (-30.0 30.0)
           (-30.0 30.0)
  end
  begin
     id 17 
     name lclavicle
     direction 0.89585 0.444077 -0.0157448  
     length 3.39587  
     axis 0 0 0   XYZ
    dof ry rz
    limits (-20.0 10.0)
           (0.0 20.0)
  end
  begin
     id 18 
     name lhumerus
     direction 1 -4.48956e-011 1.99132e-028   
     length 5.79199   
     axis 180 -30 -90   XYZ
    dof rx ry rz
    limits (-60.0 90.0)
           (-90.0 90.0)
           (-90.0 90.0)
  end
  begin
     id 19
     name lradius
     direction 1 -4.48974e-011 8.72912e-028   
     length 3.49908   
     axis 180 -30 -90   XYZ
    dof rx
    limits (-10.0 170.0)
  end
  begin
     id 20
     name lwrist
     direction 1 -4.48994e-011 4.76442e-027   
     length 1.74954   
     axis -3.27502e-015 90 90   XYZ
    dof ry
    limits (-180.0 0.0)
 end
  begin
     id 21 
     name lhand
     direction 1 -4.48945e-011 9.531e-027   
     length 0.593861   
     axis -6.08098e-015 90 90   XYZ
    dof rx rz
    limits (-90.0 90.0)
           (-45.0 45.0)
  end
  begin
     id 22 
     name lfingers
     direction 1 -4.48945e-011 1.9062e-026   
     length 0.478786   
     axis -1.21619e-014 90 90   XYZ
    dof rx
    limits (0.0 90.0)
  end
  begin
     id 23
     name lthumb
     direction 0.707107 -6.34904e-011 0.707107   
     length 0.687444   
     axis -90 45 -9.86923e-015   XYZ
    dof rx rz
    limits (-45.0 45.0)
           (-45.0 45.0)
  end
  begin
     id 24 
     name rclavicle
     direction -0.940466 0.338394 0.0318182   
     length 3.51226  
     axis 0 0 0   XYZ 
    dof ry rz
    limits (-10.0 20.0)
           (-20.0 0.0)
  end
  begin
     id 25 
     name rhumerus
     direction -1 -4.48976e-011 2.0905e-027  
     length 5.73799   
     axis 180 30 90   XYZ
    dof rx ry rz
    limits (-90.0 60.0)
           (-90.0 90.0)
           (-90.0 90.0)
  end
  begin
     id 26 
     name rradius
     direction -1 -4.48968e-011 -9.39692e-029   
     length 3.57916   
     axis 180 30 90   XYZ
    dof rx
    limits (-10.0 170.0)
  end
  begin
     id 27 
     name rwrist
     direction -1 -4.48959e-011 4.7652e-027   
     length 1.78958   
     axis -3.27502e-015 -90 -90   XYZ
    dof ry
    limits (-180.0 0.0)
  end
  begin
     id 28
     name rhand
     direction -1 -4.49042e-011 9.5267e-027   
     length 0.615577   
     axis -6.08098e-015 -90 -90   XYZ
    dof rx rz
    limits (-90.0 90.0)
           (-45.0 45.0)
  end
  begin
     id 29
     name rfingers
     direction -1 -4.48935e-011 1.90629e-026   
     length 0.496294   
     axis -1.21619e-014 -90 -90   XYZ
    dof rx
    limits (0.0 90.0)
  end
  begin
     id 30
     name rthumb
     direction -0.707107 -6.34977e-011 0.707107   
     length 0.712582   
     axis -90 -45 9.86923e-015   XYZ
    dof rx rz
    limits (-45.0 45.0)
           (-45.0 45.0)
  end
:hierarchy
  begin
    root lhipjoint rhipjoint lowerback
    lhipjoint lfemur
    lfemur ltibia
    ltibia lfoot
    lfoot ltoes
    rhipjoint rfemur
    rfemur rtibia
    rtibia rfoot
    rfoot rtoes
    lowerback upperback
    upperback thorax
    thorax lowerneck lclavicle rclavicle
    lowerneck upperneck
    upperneck head
    lclavicle lhumerus
    lhumerus lradius
    lradius lwrist
    lwrist lhand lthumb
    lhand lfingers
    rclavicle rhumerus
    rhumerus rradius
    rradius rwrist
    rwrist rhand rthumb
    rhand rfingers
  end

#!OML:ASF H:\Terrain\Patient Classification 1\PaulMetrics\March17Take5\PaulMetrics.ASF
:FULLY-SPECIFIED
:DEGREES
641
root 14.3782 17.5222 -15.5563 2.31593 -57.3175 5.11707
lowerback -0.149111 0.402924 -5.4132
upperback -2.98782 0.411687 -0.645095
thorax -3.03506 0.325481 2.35719
lowerneck -5.49501 2.56927 4.14482
upperneck 5.6996 3.46088 -5.47305
head 3.01119 1.62022 -2.38296
rclavicle 4.65474e-014 7.55382e-015
rhumerus -31.221 34.0077 -92.1704
rradius 114.235
rwrist -18.6866
rhand -15.6211 -21.5707
rfingers 7.12502
rthumb 10.5657 -51.2852
lclavicle 4.65474e-014 7.55382e-015
lhumerus -24.0507 -18.9338 84.8651
lradius 102.434
lwrist 28.9786
lhand -20.5751 -26.6774
lfingers 7.12502
lthumb 5.78458 3.22364
rfemur -7.60358 7.55817 16.5415
rtibia 20.806
rfoot -20.6684 -23.6576
rtoes -0.591423
lfemur -14.1341 -5.28166 -12.5871
ltibia 21.554
lfoot -15.2959 12.387
ltoes -7.98776
642
root 14.3731 17.5258 -15.5498 1.61019 -57.2771 6.21059
lowerback -0.386013 0.354504 -6.03783
upperback -3.0632 0.344472 -0.784132
thorax -2.98175 0.304492 2.56552
lowerneck -5.60402 2.567 4.07717
upperneck 5.70719 3.46059 -5.47575
head 3.03265 1.61681 -2.37097
rclavicle -8.33777e-014 8.05078e-015
rhumerus -32.5222 33.9117 -92.9365
rradius 112.495
rwrist -18.5677
rhand -14.5002 -21.4696
rfingers 7.12502
rthumb 11.6468 -51.1259
lclavicle -8.33777e-014 8.05078e-015
lhumerus -25.129 -18.7769 85.0898
lradius 100.224
lwrist 27.3353
lhand -19.7269 -25.9092
lfingers 7.12502
lthumb 6.60345 3.96781
rfemur -7.84764 7.70831 15.7934
rtibia 20.9003
rfoot -21.623 -23.0669
rtoes 4.60265
lfemur -14.2516 -5.38117 -13.2299
ltibia 21.3537
lfoot -15.3005 12.505
ltoes -9.16521
643
root 14.3688 17.5246 -15.5434 1.30547 -57.2558 6.55555
lowerback -0.324614 0.312405 -6.27362
upperback -3.13063 0.277064 -0.762219
thorax -3.08387 0.281225 2.72091
lowerneck -5.49234 2.60557 3.88839
upperneck 5.59925 3.52186 -5.40226
head 2.97021 1.64754 -2.30799
rclavicle 1.03465e-013 1.23246e-014
rhumerus -33.8347 33.7174 -93.5616
rradius 110.843
rwrist -18.0522
rhand -12.6363 -21.9292
rfingers 7.12502
rthumb 13.4438 -51.4754
lclavicle 1.03465e-013 1.23246e-014
lhumerus -26.2237 -18.5622 85.3372
lradius 97.9687
lwrist 25.5721
lhand -19.0207 -25.1173
lfingers 7.12502
lthumb 7.28521 4.73726
rfemur -7.79309 7.82788 15.5229
rtibia 20.9141
rfoot -22.1007 -22.6086
rtoes 6.8977
lfemur -14.2027 -5.50122 -13.4329
ltibia 21.2976
lfoot -15.9094 12.0974
ltoes 0.748804
644
root 14.3665 17.5152 -15.534 1.39179 -57.1157 6.27081
lowerback -0.193979 0.276177 -6.07973
upperback -3.10995 0.225825 -0.69835
thorax -3.12921 0.252981 2.67943
lowerneck -5.61718 2.65938 3.58043
upperneck 5.6652 3.59921 -5.11609
head 3.00253 1.68673 -2.15075
rclavicle -6.97835e-014 -2.62396e-014
rhumerus -35.0892 33.3807 -94.066
rradius 109.084
rwrist -17.6316
rhand -10.8185 -21.6316
rfingers 7.12502
rthumb 15.1953 -51.0536
lclavicle -6.97835e-014 -2.62396e-014
lhumerus -27.1036 -18.5651 85.6117
lradius 95.8054
lwrist 24.9523
lhand -18.2417 -24.2426
lfingers 7.12502
lthumb 8.03707 5.58455
rfemur -7.52958 7.74873 15.7498
rtibia 20.8415
rfoot -21.6257 -23.2684
rtoes 3.04525
lfemur -14.0696 -5.72507 -13.293
ltibia 21.3319
lfoot -15.4757 12.4553
ltoes -8.25023
645
root 14.3714 17.5049 -15.5226 1.53971 -57.0396 5.98831
lowerback -0.0160009 0.235057 -5.81719
upperback -3.15602 0.162062 -0.664807
thorax -3.26914 0.219573 2.56828
lowerneck -5.70526 2.72026 3.40891
upperneck 5.69861 3.68191 -4.93376
head 3.02398 1.72892 -2.05371
rclavicle -1.11077e-014 -2.38542e-015
rhumerus -36.5458 33.0024 -94.6477
rradius 107.507
rwrist -17.305
rhand -9.29603 -21.3831
rfingers 7.12502
rthumb 16.6615 -50.688
lclavicle -1.11077e-014 -2.38542e-015
lhumerus -28.0446 -18.3729 85.9242
lradius 93.6622
lwrist 24.195
lhand -17.0563 -23.4201
lfingers 7.12502
lthumb 9.18104 6.36007
rfemur -7.31081 7.57612 16.0133
rtibia 20.627
rfoot -20.3316 -24.4112
rtoes -3.53699
lfemur -14.0654 -5.8136 -13.1671
ltibia 21.4888
lfoot -15.458 12.3501
ltoes -6.93177
646
root 14.3728 17.5119 -15.513 1.60504 -57.0788 5.86842
lowerback 0.0654219 0.186845 -5.66796
upperback -3.21179 0.093303 -0.636084
thorax -3.36584 0.185166 2.51619
lowerneck -5.45539 2.72895 3.52923
upperneck 5.38469 3.69122 -5.12268
head 2.87975 1.73516 -2.1387
rclavicle -7.27073e-014 -1.0635e-014
rhumerus -37.7981 32.6932 -95.158
rradius 106.032
rwrist -17.0893
rhand -7.53143 -21.9221
rfingers 7.12502
rthumb 18.3596 -51.0757
lclavicle -7.27073e-014 -1.0635e-014
lhumerus -28.9894 -17.768 86.1876
lradius 91.5118
lwrist 22.633
lhand -15.8728 -22.8301
lfingers 7.12502
lthumb 10.3229 6.89656
rfemur -7.10865 7.76701 16.0828
rtibia 20.3858
rfoot -20.0943 -24.6965
rtoes -4.48443
lfemur -14.0886 -5.78001 -13.1448
ltibia 21.6652
lfoot -15.5839 12.2695
ltoes -4.83249
647
root 14.363 17.5204 -15.5088 1.49468 -57.187 6.08266
lowerback -0.112991 0.170525 -5.86303
upperback -3.23881 0.0783669 -0.632187
thorax -3.29372 0.181368 2.63003
lowerneck -5.21533 2.71608 3.76158
upperneck 5.03857 3.66262 -5.32789
head 2.72929 1.72493 -2.25121
rclavicle 1.52183e-014 1.13307e-014
rhumerus -38.6088 32.3099 -95.4731
rradius 104.274
rwrist -17.0772
rhand -5.47838 -22.8103
rfingers 7.12502
rthumb 20.3337 -51.7658
lclavicle 1.52183e-014 1.13307e-014
lhumerus -29.7325 -17.3102 86.3438
lradius 89.4643
lwrist 21.4143
lhand -15.1481 -21.9073
lfingers 7.12502
lthumb 11.0219 7.78334
rfemur -7.10456 8.20639 15.8941
rtibia 20.3474
rfoot -20.9417 -24.3924
rtoes -1.01903
lfemur -14.0561 -5.66613 -13.2946
ltibia 21.605
lfoot -15.47 12.3303
ltoes -5.9744
648
root 14.3593 17.5161 -15.5041 1.45562 -57.0405 6.33856
lowerback -0.276031 0.128202 -6.02975
upperback -3.30334 0.0250574 -0.681164
thorax -3.26548 0.158365 2.67411
lowerneck -5.13005 2.67375 3.82942
upperneck 4.73329 3.58908 -5.2676
head 2.60686 1.6951 -2.24541
rclavicle 2.4586e-016 -1.49089e-015
rhumerus -39.249 31.9296 -95.703
rradius 102.34
rwrist -17.1407
rhand -4.48649 -22.5757
rfingers 7.12502
rthumb 21.2867 -51.4267
lclavicle 2.4586e-016 -1.49089e-015
lhumerus -30.3909 -17.1442 86.4388
lradius 87.4923
lwrist 20.6662
lhand -14.2814 -21.0801
lfingers 7.12502
lthumb 11.8577 8.56415
rfemur -7.29483 8.29091 15.7242
rtibia 20.4564
rfoot -21.1818 -24.5175
rtoes -0.348108
lfemur -14.0782 -5.7492 -13.4296
ltibia 21.323
lfoot -15.3313 12.2586
ltoes -5.47155
649
root 14.3582 17.5148 -15.4933 1.3379 -56.8819 6.67905
lowerback -0.468251 0.102857 -6.07448
upperback -3.34599 -0.00221196 -0.799079
thorax -3.19905 0.14221 2.57791
lowerneck -5.23893 2.64873 3.75377
upperneck 4.61943 3.54521 -5.10485
head 2.57959 1.67628 -2.17756
rclavicle 6.94785e-015 -2.72335e-014
rhumerus -39.8984 31.6071 -95.9326
rradius 100.49
rwrist -17.1857
rhand -4.4018 -22.8843
rfingers 7.12502
rthumb 21.3681 -51.7261
lclavicle 6.94785e-015 -2.72335e-014
lhumerus -30.9493 -17.2449 86.4266
lradius 85.5058
lwrist 20.3237
lhand -13.0755 -20.4535
lfingers 7.12502
lthumb 13.0204 9.12011
rfemur -7.4409 8.14986 15.4875
rtibia 20.4876
rfoot -21.2523 -24.5354
rtoes 0.755222
lfemur -14.0712 -5.96124 -13.6232
ltibia 21.0327
lfoot -15.5699 12.1671
ltoes -3.05884
650
root 14.3485 17.5187 -15.4937 0.841166 -57.7154 6.97508
lowerback -0.395679 0.370562 -6.3481
upperback -3.27416 0.348503 -0.815473
thorax -3.20085 0.323193 2.70524
lowerneck -5.50031 2.68922 3.71838
upperneck 4.81472 3.59909 -5.05657
head 2.69425 1.69932 -2.15196
rclavicle -1.62966e-013 -9.14409e-015
rhumerus -40.5425 31.2539 -96.2545
rradius 98.652
rwrist -17.2976
rhand -5.49713 -23.114
rfingers 7.12502
rthumb 20.3157 -52.0715
lclavicle -1.62966e-013 -9.14409e-015
lhumerus -31.4367 -17.2199 86.3675
lradius 83.5136
lwrist 20.1491
lhand -11.8144 -19.5501
lfingers 7.12502
lthumb 14.2358 9.94201
rfemur -7.25914 8.50496 15.3192
rtibia 20.3742
rfoot -21.1256 -23.9844
rtoes 1.76675
lfemur -13.4915 -5.35565 -13.8292
ltibia 20.9372
lfoot -15.833 12.3344
ltoes -3.89698
651
root 14.3451 17.5367 -15.4993 1.31846 -58.522 6.44591
lowerback -0.413426 0.633832 -6.15046
upperback -3.3436 0.70333 -0.730196
thorax -3.29389 0.500085 2.67324
lowerneck -5.45391 2.66082 3.90538
upperneck 4.72376 3.55613 -5.25171
head 2.66411 1.67659 -2.2535
rclavicle -1.39811e-014 -8.94531e-016
rhumerus -41.2346 30.8911 -96.6168
rradius 96.8663
rwrist -17.4379
rhand -6.99499 -23.0557
rfingers 7.12502
rthumb 18.8756 -52.1599
lclavicle -1.39811e-014 -8.94531e-016
lhumerus -31.9734 -17.1018 86.404
lradius 81.6251
lwrist 20.0015
lhand -11.0932 -18.3164
lfingers 7.12502
lthumb 14.9307 11.1254
rfemur -7.36528 9.23616 15.558
rtibia 20.1799
rfoot -21.2346 -23.5922
rtoes 2.96223
lfemur -13.3536 -4.66991 -13.5191
ltibia 21.0035
lfoot -15.7284 12.5633
ltoes -7.1215
652
root 14.3517 17.5327 -15.485 1.73924 -58.2456 6.01207
lowerback -0.437544 0.589274 -5.66937
upperback -3.37328 0.651471 -0.745001
thorax -3.29652 0.461112 2.39055
lowerneck -5.46324 2.56892 4.35148
upperneck 4.60365 3.42252 -5.74624
head 2.64598 1.60384 -2.50827
rclavicle 7.54609e-014 2.78299e-015
rhumerus -41.9754 30.4811 -96.7833
rradius 95.2833
rwrist -17.1631
rhand -7.56689 -23.0868
rfingers 7.12502
rthumb 18.3255 -52.2436
lclavicle 7.54609e-014 2.78299e-015
lhumerus -32.4057 -16.8891 86.5883
lradius 79.7312
lwrist 19.7904
lhand -10.7954 -17.3465
lfingers 7.12502
lthumb 15.2176 12.0739
rfemur -7.26053 9.11471 15.7976
rtibia 19.9421
rfoot -20.8367 -23.8797
rtoes 1.9471
lfemur -13.5665 -4.99 -13.2972
ltibia 21.1785
lfoot -15.709 12.6313
ltoes -7.48228
653
root 14.3554 17.5128 -15.474 1.33156 -57.8308 6.63231
lowerback -0.616282 0.470954 -5.89195
upperback -3.35947 0.499255 -0.859078
thorax -3.17095 0.385396 2.40266
lowerneck -5.70048 2.50669 4.60738
upperneck 4.64206 3.33185 -6.0784
head 2.71545 1.54944 -2.67279
rclavicle 7.63207e-014 1.47101e-014
rhumerus -42.3528 29.956 -96.7486
rradius 93.5054
rwrist -16.4645
rhand -8.04504 -23.0837
rfingers 7.12502
rthumb 17.8655 -52.2831
lclavicle 7.63207e-014 1.47101e-014
lhumerus -32.6515 -16.4393 86.7458
lradius 77.7895
lwrist 19.4534
lhand -10.2329 -17.0446
lfingers 7.12502
lthumb 15.7594 12.3338
rfemur -7.16362 8.51302 15.5097
rtibia 19.6516
rfoot -19.465 -24.6032
rtoes -3.99637
lfemur -13.9674 -5.35196 -13.6778
ltibia 21.4843
lfoot -15.9154 12.5262
ltoes -5.80565
654
root 14.3556 17.5037 -15.4772 0.784178 -57.8499 7.22943
lowerback -0.56305 0.475215 -6.33651
upperback -3.36404 0.492423 -0.909687
thorax -3.2125 0.394283 2.59827
lowerneck -5.57427 2.47231 4.32766
upperneck 4.36341 3.28802 -5.85444
head 2.58087 1.53286 -2.54441
rclavicle -1.82692e-014 -1.53064e-014
rhumerus -42.4893 29.3168 -96.7238
rradius 91.5582
rwrist -15.8257
rhand -9.24648 -22.9633
rfingers 7.12502
rthumb 16.7092 -52.2642
lclavicle -1.82692e-014 -1.53064e-014
lhumerus -32.929 -16.337 86.7615
lradius 75.9763
lwrist 19.6301
lhand -9.50019 -16.6152
lfingers 7.12502
lthumb 16.4649 12.7061
rfemur -7.01503 8.35988 15.2142
rtibia 19.4405
rfoot -18.5432 -25.0702
rtoes -8.71394
lfemur -14.0686 -5.25496 -14.0345
ltibia 21.7458
lfoot -16.0217 12.4422
ltoes -5.28213
